<svg width="2000" fill="#c8d7de" height="314" viewBox="0 0 2000 314"  xmlns="http://www.w3.org/2000/svg"><path d="M1556.55 176.457C1581.29 176.457 1600.59 178.93 1614.39 183.827H1614.44C1628.25 188.773 1636.56 195.203 1639.43 203.117H1640.37L1652.74 145.048H1651.8C1645.76 152.369 1634.98 158.007 1619.44 161.964C1603.85 165.921 1583.56 167.9 1558.48 167.9H1557.9L1591.57 8.87983H1599.94C1620.23 8.87983 1639.03 12.5894 1656.35 20.0582C1673.67 27.5269 1689.61 39.0516 1704.2 54.5826H1705.14L1709.89 0.32291H1497.16L1497.17 0.273438L1497.07 0.32291H1497.16L1423.83 346.754H1520.03L1556.09 176.457H1556.55Z" fill="#D9EDF7"></path><path fill-rule="evenodd" clip-rule="evenodd" d="M225.401 21.198C254.497 35.1462 277.21 54.9804 293.044 80.849H293.094C308.978 106.718 316.944 137.78 316.944 173.689C316.944 209.598 308.829 240.66 292.846 266.529C276.863 292.299 254.051 312.232 224.411 326.032C194.87 339.782 159.341 346.756 118.617 346.756C77.8922 346.756 42.9571 339.832 13.7127 326.032C-15.5317 312.232 -38.0959 292.299 -53.9304 266.529C-69.8145 240.66 -77.7812 209.846 -77.7812 173.689C-77.7812 137.532 -69.8147 106.718 -53.8317 80.849C-37.8487 54.931 -14.8885 35.0967 14.6033 21.198C44.1942 7.29917 79.8715 0.473411 120.497 0.473411C161.122 0.473411 196.156 7.29917 225.401 21.198ZM119.507 266.529C149.148 266.529 172.207 258.318 188.684 241.946C205.014 225.723 213.278 203.317 213.278 173.689C213.278 144.061 205.063 121.16 188.684 105.036C172.207 88.7629 148.999 80.7996 119.507 80.7996C90.0154 80.7996 66.9564 88.9113 50.5775 105.283C33.9513 121.655 25.6875 144.21 25.6875 173.689C25.6875 203.168 33.9513 225.97 50.5775 242.194C66.9564 258.417 89.867 266.529 119.507 266.529Z" fill="#D9EDF7"></path><path fill-rule="evenodd" clip-rule="evenodd" d="M1252.11 88.708C1299.41 88.708 1336.13 99.6886 1361.91 121.946C1387.79 144.105 1400.8 175.662 1400.8 216.616C1400.8 243.425 1394.62 266.573 1382.4 285.913C1370.02 305.252 1352.66 320.041 1329.84 330.478C1307.28 340.766 1280.11 345.91 1248.4 345.91C1200.84 345.91 1164.23 334.83 1138.35 312.671C1112.42 290.513 1099.55 258.956 1099.55 218.001C1099.55 190.847 1105.74 167.798 1118.11 148.458C1130.33 129.267 1147.85 114.478 1170.66 104.041C1193.47 93.7531 1220.54 88.708 1252.11 88.708ZM1194.26 216.963C1194.26 257.126 1212.82 277.108 1250.18 277.108C1287.39 277.108 1306.09 257.472 1306.09 217.457C1306.09 177.443 1287.54 157.46 1250.18 157.46C1212.82 157.46 1194.26 176.8 1194.26 216.963Z" fill="#D9EDF7"></path><path d="M1081.68 180.46V338.342H988.012V198.069C988.012 171.903 974.602 158.647 947.683 158.647C940.063 158.647 932.739 160.181 925.91 163.148C918.834 166.116 912.748 169.974 907.602 174.871C897.161 183.873 891.866 194.557 891.866 207.318V338.293H798.047V8.58004H891.866V128.228C904.088 115.616 917.894 105.822 933.234 98.9964C948.425 91.9234 965.695 88.56 984.746 88.56C1015.18 88.56 1038.98 96.4244 1056 112.499C1073.27 128.476 1081.63 151.129 1081.63 180.361L1081.68 180.46Z" fill="#D9EDF7"></path><path d="M698.37 32.2846H604.55V96.0905H558.283V163.062H604.55V261.541C604.55 261.541 604.55 330.738 669.224 340.185C733.898 349.632 780.165 331.628 780.165 331.628V269.108C698.073 292.306 698.37 243.388 698.37 243.388V163.012H780.165V96.041H698.37V32.2846Z" fill="#D9EDF7"></path><path d="M540.422 94.7408C540.422 94.7408 473.571 75.6485 426.76 130.7V96.0763H334.771V338.489H426.76V236.696C426.76 236.696 421.812 144.994 540.422 163.097V94.7408Z" fill="#D9EDF7"></path><path d="M1710.08 294.671C1729.92 276.419 1753.77 251.293 1781.73 219.241L1816.61 179.12L1715.12 0.365733H1821.75L1886.3 114.28C1911.54 84.8344 1929.68 62.1353 1940.72 46.2235C1952.45 29.2581 1959.77 13.9249 1962.64 0.273438H2015.99C1996.29 15.8045 1976.55 33.2645 1956.7 52.6041C1937.46 71.3656 1915.6 94.7819 1891.13 122.808L2018.05 346.797H1911.81L1821.32 187.418L1789.35 224.435C1771.59 244.764 1758.57 262.273 1750.31 277.013C1742.05 291.752 1737 304.217 1735.07 314.356C1733.14 324.496 1732.84 335.279 1734.13 346.705H1646.05C1668.91 330.234 1690.24 312.823 1710.08 294.572V294.671Z" fill="#D9EDF7"></path></svg>